<?xml version="1.0" standalone="no"?>
<!DOCTYPE svg PUBLIC "-//W3C//DTD SVG 20010904//EN"
 "http://www.w3.org/TR/2001/REC-SVG-20010904/DTD/svg10.dtd">
<svg version="1.0" xmlns="http://www.w3.org/2000/svg"
 width="1024.000000pt" height="1024.000000pt" viewBox="0 0 1024.000000 1024.000000"
 preserveAspectRatio="xMidYMid meet">
<metadata>
Created by potrace 1.16, written by Peter Selinger 2001-2019
</metadata>
<g transform="translate(0.000000,1024.000000) scale(0.100000,-0.100000)"
fill="#000000" stroke="none">
<path d="M4575 8560 c-106 -5 -174 -12 -200 -23 -22 -8 -78 -30 -125 -47 -47
-18 -92 -38 -100 -45 -8 -6 -35 -23 -60 -37 -25 -15 -54 -37 -66 -50 -12 -12
-49 -49 -83 -82 -33 -32 -61 -62 -61 -66 0 -16 -119 -80 -164 -89 -26 -5 -64
-21 -87 -37 -22 -16 -68 -48 -102 -71 -34 -24 -97 -71 -139 -105 -43 -34 -98
-70 -124 -80 -70 -28 -158 -92 -197 -145 -20 -26 -46 -61 -58 -78 -12 -16 -33
-41 -45 -55 -36 -39 -89 -156 -109 -240 -10 -41 -28 -91 -40 -110 -63 -101
-136 -269 -145 -330 -36 -257 -42 -286 -69 -348 -54 -126 -80 -244 -85 -397
-3 -77 -8 -172 -12 -212 -5 -61 -2 -86 21 -165 27 -90 28 -104 36 -408 4 -187
12 -329 19 -350 47 -146 53 -352 14 -510 -23 -91 -26 -118 -19 -184 5 -61 12
-83 32 -106 14 -17 22 -30 18 -30 -4 0 0 -11 9 -25 9 -13 16 -31 16 -39 0 -8
3 -16 8 -18 14 -6 84 -168 89 -205 3 -22 -4 -68 -15 -108 -17 -63 -18 -78 -7
-150 7 -44 11 -94 8 -110 -6 -35 15 -59 51 -60 28 0 60 40 53 67 -4 13 3 33
20 54 14 19 22 34 19 34 -4 0 0 12 7 28 8 15 24 108 37 207 12 99 33 214 45
255 13 41 33 121 44 177 11 57 27 115 34 130 8 16 23 71 35 123 11 52 28 129
38 170 38 172 34 144 65 466 12 131 11 145 -5 189 -22 56 -31 241 -17 325 6
30 12 79 16 108 3 30 7 57 9 61 3 4 7 25 9 46 7 56 37 121 87 188 34 45 50 58
79 63 33 6 80 45 81 68 1 23 96 87 139 93 13 2 33 10 45 18 35 23 141 43 296
56 165 13 424 75 565 134 44 19 124 46 177 60 117 31 360 110 408 132 32 15
78 32 310 114 47 17 130 39 185 49 55 10 134 30 175 44 41 14 81 26 90 26 8 0
35 10 60 21 69 32 74 32 243 31 86 -1 157 2 157 7 0 5 12 14 28 20 15 7 38 18
52 27 34 20 70 11 132 -32 29 -20 81 -49 115 -65 33 -16 67 -34 75 -42 7 -7
49 -39 94 -70 44 -32 88 -71 98 -87 9 -17 32 -38 49 -48 18 -9 60 -47 95 -83
76 -81 123 -183 171 -373 18 -71 39 -143 46 -160 21 -50 54 -204 64 -298 8
-86 4 -129 -19 -198 -6 -19 -17 -120 -24 -225 -10 -142 -18 -199 -32 -227 -10
-21 -21 -38 -24 -38 -4 0 -7 -18 -7 -40 0 -22 3 -40 7 -40 10 0 36 -66 44
-115 4 -22 18 -71 31 -110 38 -112 67 -262 95 -495 6 -47 19 -128 30 -180 10
-52 22 -151 26 -220 4 -69 9 -128 10 -132 1 -5 2 -19 3 -33 1 -22 5 -25 39
-25 47 0 57 11 105 113 23 49 56 99 89 133 29 31 66 77 83 102 16 26 41 56 55
67 14 11 38 33 54 49 26 28 28 34 20 81 -4 27 -8 136 -7 240 1 175 3 198 28
290 15 55 31 120 36 145 5 25 22 74 38 110 17 36 35 95 41 132 8 47 21 79 40
103 34 43 46 103 60 320 6 88 17 215 25 282 8 67 15 163 15 215 0 54 7 119 16
153 10 39 13 76 9 105 -4 25 -10 91 -15 147 -6 85 -12 109 -38 155 -16 29 -33
71 -37 93 -3 22 -20 68 -36 103 -16 34 -29 66 -29 71 0 4 -18 31 -40 59 -22
27 -40 53 -40 57 0 3 -13 25 -28 48 -16 23 -36 60 -44 82 -21 52 -148 239
-226 331 -35 41 -79 107 -99 147 -20 39 -51 88 -70 108 -18 19 -50 69 -71 109
-33 65 -46 80 -107 121 -37 26 -93 68 -124 93 -31 26 -70 57 -87 71 -37 29
-222 125 -240 125 -8 0 -45 28 -84 63 -151 132 -162 139 -272 162 -38 8 -90
26 -113 40 -24 14 -54 25 -67 25 -13 0 -58 -26 -100 -58 -42 -31 -92 -65 -110
-74 -82 -42 -161 -77 -188 -83 -17 -4 -44 -18 -61 -33 -35 -29 -117 -53 -150
-45 -13 4 -50 27 -82 52 -102 81 -113 87 -182 99 -37 7 -88 24 -114 37 -26 14
-74 30 -106 35 -33 6 -86 20 -117 31 -39 15 -69 19 -95 15 -124 -19 -116 -20
-157 13 -32 26 -47 31 -85 29 -25 -1 -118 -4 -206 -8z"/>
<path d="M3856 4427 c-11 -7 -29 -20 -40 -29 -11 -10 -27 -20 -35 -23 -9 -3
-26 -21 -38 -40 -14 -21 -34 -37 -50 -40 -100 -20 -175 -41 -218 -62 -27 -14
-57 -29 -65 -33 -17 -8 -25 -75 -15 -126 4 -24 15 -37 48 -54 49 -26 96 -23
137 10 14 10 57 44 95 74 92 73 130 73 235 -3 29 -21 54 -31 79 -31 56 0 132
27 166 59 16 16 40 34 52 40 43 22 105 11 141 -26 28 -28 123 -83 194 -113 48
-20 87 -44 112 -70 21 -22 46 -40 57 -40 44 0 69 109 40 176 -12 30 -123 124
-145 124 -7 0 -35 16 -62 35 -27 19 -71 42 -99 51 -27 8 -59 20 -70 25 -11 5
-40 13 -65 18 -25 5 -79 22 -120 37 -140 51 -288 69 -334 41z"/>
<path d="M5940 4365 c-14 -8 -50 -22 -80 -31 -30 -9 -84 -29 -120 -45 -35 -17
-102 -41 -149 -54 -133 -39 -224 -105 -219 -160 l3 -30 140 -1 c117 -2 146 1
175 16 20 10 56 20 80 23 25 3 79 18 120 35 87 35 110 30 141 -29 28 -56 74
-86 130 -87 26 0 56 -5 67 -11 36 -19 60 -12 112 34 33 30 56 42 67 39 49 -16
101 -46 130 -74 18 -16 46 -33 63 -36 62 -13 105 52 75 114 -15 30 -32 40
-125 74 -30 12 -73 33 -95 49 -22 15 -62 32 -90 38 -73 14 -148 42 -162 60 -6
9 -14 28 -17 42 -5 24 -12 28 -69 38 -85 15 -147 13 -177 -4z"/>
<path d="M3241 4341 c-7 -5 -19 -31 -26 -57 -10 -40 -10 -54 1 -76 20 -38 28
-41 89 -27 47 10 55 16 60 40 11 48 -3 86 -39 109 -36 21 -63 25 -85 11z"/>
<path d="M7409 3443 c-1 -5 -3 -17 -4 -28 -1 -11 -18 -52 -39 -91 -38 -75 -43
-93 -25 -111 19 -19 6 -57 -21 -63 -35 -8 -59 -62 -76 -172 -16 -110 -18 -117
-42 -188 -11 -30 -22 -89 -26 -130 -9 -94 -11 -118 -19 -155 -4 -16 -9 -50
-12 -75 -3 -25 -12 -83 -20 -130 -8 -47 -19 -112 -25 -145 -22 -134 -35 -178
-70 -245 -4 -9 -11 -31 -15 -50 -4 -19 -20 -60 -35 -90 -15 -30 -33 -72 -40
-94 -7 -21 -34 -74 -60 -117 -26 -43 -55 -102 -64 -131 -16 -48 -90 -196 -105
-208 -3 -3 -20 -25 -36 -50 -48 -71 -117 -150 -132 -150 -13 0 -95 -57 -96
-66 -1 -11 -47 -48 -47 -38 0 4 -9 -1 -20 -11 -11 -10 -20 -15 -20 -11 0 8
-15 -3 -84 -65 -74 -67 -105 -80 -184 -78 -67 1 -114 -10 -127 -30 -3 -6 -15
-11 -27 -11 -23 0 -54 -23 -214 -157 -62 -51 -116 -93 -122 -93 -5 0 -15 -7
-22 -15 -6 -8 -15 -14 -18 -13 -4 1 -14 -2 -22 -5 -8 -3 -77 -11 -153 -17 -75
-6 -149 -15 -165 -21 -15 -6 -79 -12 -143 -14 -64 -2 -137 -6 -162 -10 -61 -9
-133 8 -233 56 -45 22 -88 39 -96 39 -9 0 -51 23 -94 51 -43 28 -83 52 -89 53
-5 1 -14 4 -20 8 -5 3 -29 9 -52 13 -57 9 -89 36 -97 82 -4 21 -9 52 -12 68
-7 36 -36 69 -75 85 -56 24 -135 171 -148 278 -5 37 -7 70 -5 74 7 12 -37 77
-57 83 -10 4 -19 11 -19 16 0 16 -48 10 -81 -10 -20 -12 -26 -21 -17 -24 9 -4
9 -6 -3 -6 -9 -1 -24 -10 -35 -22 -16 -17 -16 -22 -4 -29 13 -8 12 -10 -2 -10
-10 0 -18 7 -18 15 0 17 -16 20 -24 6 -4 -5 0 -12 6 -14 7 -3 1 -6 -14 -6 -16
-1 -28 3 -28 8 0 5 -11 12 -25 15 -32 8 -175 146 -175 169 0 9 -4 17 -10 17
-5 0 -10 8 -10 18 0 10 -5 23 -12 30 -7 7 -8 12 -3 12 4 0 -11 14 -33 30 -43
31 -45 36 -42 81 1 20 -8 34 -33 53 -22 17 -38 41 -47 68 -11 40 -40 92 -40
75 0 -12 -36 25 -49 51 -6 12 -19 22 -27 22 -13 0 -15 -8 -11 -32 8 -60 76
-271 93 -289 24 -27 33 -82 35 -215 2 -164 0 -168 -116 -179 -96 -9 -186 -25
-250 -45 -33 -11 -108 -26 -167 -34 -58 -9 -129 -25 -157 -36 -28 -11 -94 -27
-148 -36 -54 -9 -141 -26 -193 -39 -52 -13 -147 -30 -210 -38 -63 -9 -137 -24
-165 -35 -27 -11 -93 -27 -145 -36 -52 -10 -131 -28 -175 -41 -44 -13 -129
-33 -190 -45 -60 -12 -177 -34 -260 -51 -82 -16 -171 -38 -196 -49 -26 -11
-89 -27 -140 -36 -108 -18 -117 -22 -153 -65 l-26 -31 0 -244 0 -244 1369 0
1369 0 7 123 c7 117 29 274 40 285 13 14 25 -20 34 -98 11 -99 16 -113 50
-158 18 -25 26 -50 29 -93 l4 -59 1275 0 1275 0 -3 46 c-3 40 0 49 23 65 15
11 30 19 35 18 37 -9 133 42 133 71 0 18 67 46 107 45 38 -1 42 1 47 27 3 15
10 28 16 28 28 0 102 46 160 101 36 33 81 72 102 85 20 14 42 39 48 55 13 30
108 119 127 119 6 0 13 12 16 28 3 15 27 55 53 90 37 50 49 60 60 51 26 -21
16 -63 -29 -121 -24 -31 -51 -64 -60 -73 -30 -29 -41 -113 -18 -136 14 -14 20
-12 59 15 36 26 44 28 52 16 13 -21 12 -77 -2 -103 -6 -12 -11 -58 -10 -102 1
-58 -5 -95 -19 -135 -11 -30 -23 -85 -26 -122 l-6 -68 1291 0 1290 0 -5 21
c-6 20 -71 58 -102 59 -8 0 -41 13 -75 29 -34 15 -77 31 -96 35 -19 3 -61 19
-95 35 -33 16 -80 38 -105 50 -25 12 -88 44 -140 72 -52 28 -122 62 -155 74
-90 35 -191 80 -275 124 -212 110 -279 143 -325 157 -54 16 -205 87 -245 116
-27 19 -202 73 -290 90 -30 5 -65 15 -77 21 -11 7 -78 64 -147 127 -116 106
-129 122 -167 199 -40 83 -40 85 -30 145 6 34 13 131 16 216 11 292 26 438 56
541 15 53 30 130 34 170 11 140 15 157 46 196 29 35 30 42 23 88 -13 84 -8
145 21 260 15 61 31 153 37 205 11 112 16 370 7 364 -10 -6 -19 24 -13 41 4 8
3 15 0 15 -3 0 -7 -3 -7 -7z"/>
<path d="M4385 2770 c-27 -3 -56 -9 -62 -13 -31 -20 4 -99 57 -130 14 -9 66
-53 116 -99 50 -46 110 -93 135 -105 247 -124 345 -119 540 27 83 62 199 110
267 110 76 0 112 16 112 50 0 49 -71 79 -191 81 -63 1 -85 -3 -135 -26 -32
-16 -75 -40 -94 -55 -83 -62 -144 -75 -229 -49 -92 28 -141 54 -200 104 -28
24 -85 60 -126 80 -75 36 -80 37 -190 25z"/>
<path d="M3926 2221 c-18 -19 -16 -28 15 -98 13 -29 33 -51 61 -69 24 -15 57
-39 73 -54 143 -132 140 -130 186 -130 62 0 108 15 140 46 28 27 73 31 75 7 1
-7 2 -22 3 -33 2 -33 31 -24 31 9 0 17 11 43 27 61 27 32 57 37 105 15 12 -5
20 -2 24 10 9 22 -12 35 -59 35 -21 0 -50 6 -65 14 -15 8 -54 17 -87 21 -57 7
-205 51 -215 64 -10 12 -69 51 -78 51 -5 0 -29 16 -53 35 -39 31 -50 35 -105
35 -47 0 -65 -4 -78 -19z"/>
<path d="M5945 2090 c-8 -13 -81 -46 -120 -55 -17 -4 -39 -13 -51 -20 -11 -7
-38 -14 -60 -16 -21 -1 -48 -7 -59 -13 -11 -6 -77 -13 -148 -16 -70 -3 -132
-11 -137 -16 -17 -17 68 -64 116 -64 37 0 44 -4 68 -40 l26 -40 78 6 c42 4 86
12 98 18 12 6 57 30 102 53 44 23 84 48 88 54 3 6 31 22 60 35 40 17 55 30 60
49 10 39 -28 75 -77 75 -21 0 -41 -5 -44 -10z"/>
</g>
</svg>
